<svg width="659" height="275" viewBox="0 0 659 275" fill="none" xmlns="http://www.w3.org/2000/svg">
<path d="M486.402 225.542C485.755 222.05 484.591 219.399 482.91 217.588C481.293 215.777 478.803 214.872 475.441 214.872C473.242 214.872 471.399 215.26 469.912 216.036C468.489 216.747 467.325 217.653 466.42 218.752C465.579 219.851 464.965 221.016 464.577 222.244C464.253 223.473 464.059 224.572 463.995 225.542H486.402ZM463.995 234.272C464.189 238.734 465.32 241.967 467.39 243.972C469.459 245.977 472.434 246.979 476.314 246.979C479.094 246.979 481.487 246.3 483.492 244.942C485.496 243.519 486.725 242.032 487.178 240.48H499.303C497.363 246.494 494.388 250.795 490.379 253.381C486.369 255.968 481.519 257.261 475.829 257.261C471.884 257.261 468.327 256.647 465.159 255.418C461.99 254.125 459.306 252.314 457.108 249.986C454.909 247.658 453.195 244.877 451.967 241.644C450.803 238.411 450.221 234.854 450.221 230.974C450.221 227.223 450.835 223.732 452.064 220.498C453.292 217.265 455.038 214.484 457.302 212.156C459.565 209.763 462.249 207.888 465.353 206.53C468.521 205.172 472.013 204.493 475.829 204.493C480.097 204.493 483.815 205.334 486.984 207.015C490.152 208.632 492.739 210.83 494.744 213.611C496.813 216.392 498.3 219.561 499.206 223.117C500.111 226.674 500.434 230.392 500.176 234.272H463.995Z" fill="white"/>
<path d="M411.874 244.166C413.814 244.166 415.528 243.778 417.015 243.002C418.503 242.226 419.731 241.191 420.701 239.898C421.671 238.605 422.383 237.15 422.835 235.533C423.353 233.852 423.611 232.106 423.611 230.295C423.611 228.226 423.417 226.286 423.029 224.475C422.641 222.6 421.995 220.951 421.089 219.528C420.184 218.106 418.988 216.974 417.5 216.133C416.013 215.292 414.138 214.872 411.874 214.872C409.934 214.872 408.253 215.26 406.83 216.036C405.472 216.812 404.308 217.879 403.338 219.237C402.433 220.53 401.754 222.05 401.301 223.796C400.913 225.478 400.719 227.256 400.719 229.131C400.719 230.942 400.881 232.753 401.204 234.563C401.592 236.309 402.207 237.893 403.047 239.316C403.953 240.739 405.117 241.903 406.539 242.808C407.962 243.714 409.74 244.166 411.874 244.166ZM436.706 252.799C436.706 254.804 436.415 257.1 435.833 259.686C435.316 262.273 434.152 264.666 432.341 266.864C430.531 269.128 427.912 271.035 424.484 272.587C421.057 274.139 416.466 274.915 410.71 274.915C408.253 274.915 405.731 274.592 403.144 273.945C400.622 273.363 398.294 272.425 396.16 271.132C394.091 269.839 392.345 268.158 390.922 266.088C389.564 264.084 388.788 261.658 388.594 258.813H402.271C402.918 261.4 404.179 263.178 406.054 264.148C407.93 265.183 410.096 265.7 412.553 265.7C416.433 265.7 419.246 264.536 420.992 262.208C422.803 259.88 423.676 256.938 423.611 253.381V246.785H423.417C421.93 249.437 419.796 251.409 417.015 252.702C414.299 253.931 411.422 254.545 408.382 254.545C404.632 254.545 401.398 253.899 398.682 252.605C395.966 251.247 393.735 249.437 391.989 247.173C390.243 244.845 388.95 242.161 388.109 239.122C387.333 236.018 386.945 232.752 386.945 229.325C386.945 226.092 387.398 222.988 388.303 220.013C389.273 216.974 390.664 214.323 392.474 212.059C394.285 209.731 396.516 207.888 399.167 206.53C401.883 205.172 404.987 204.493 408.479 204.493C411.777 204.493 414.655 205.108 417.112 206.336C419.634 207.565 421.736 209.634 423.417 212.544H423.611V205.851H436.706V252.799Z" fill="white"/>
<path d="M326.148 205.851H339.243V212.835H339.534C341.28 209.925 343.544 207.824 346.324 206.53C349.105 205.172 351.95 204.493 354.86 204.493C358.546 204.493 361.553 205.011 363.881 206.045C366.274 207.015 368.149 208.406 369.507 210.216C370.865 211.962 371.803 214.128 372.32 216.715C372.902 219.237 373.193 222.05 373.193 225.154V256H359.419V227.676C359.419 223.537 358.773 220.466 357.479 218.461C356.186 216.392 353.89 215.357 350.592 215.357C346.842 215.357 344.126 216.489 342.444 218.752C340.763 220.951 339.922 224.604 339.922 229.713V256H326.148V205.851Z" fill="white"/>
<path d="M299.355 225.542C298.708 222.05 297.544 219.399 295.863 217.588C294.246 215.777 291.756 214.872 288.394 214.872C286.195 214.872 284.352 215.26 282.865 216.036C281.442 216.747 280.278 217.653 279.373 218.752C278.532 219.851 277.918 221.016 277.53 222.244C277.207 223.473 277.013 224.572 276.948 225.542H299.355ZM276.948 234.272C277.142 238.734 278.274 241.967 280.343 243.972C282.412 245.977 285.387 246.979 289.267 246.979C292.048 246.979 294.44 246.3 296.445 244.942C298.45 243.519 299.678 242.032 300.131 240.48H312.256C310.316 246.494 307.341 250.795 303.332 253.381C299.323 255.968 294.472 257.261 288.782 257.261C284.837 257.261 281.281 256.647 278.112 255.418C274.943 254.125 272.26 252.314 270.061 249.986C267.862 247.658 266.148 244.877 264.92 241.644C263.756 238.411 263.174 234.854 263.174 230.974C263.174 227.223 263.788 223.732 265.017 220.498C266.246 217.265 267.992 214.484 270.255 212.156C272.518 209.763 275.202 207.888 278.306 206.53C281.475 205.172 284.966 204.493 288.782 204.493C293.05 204.493 296.768 205.334 299.937 207.015C303.105 208.632 305.692 210.83 307.697 213.611C309.766 216.392 311.254 219.561 312.159 223.117C313.064 226.674 313.388 230.392 313.129 234.272H276.948Z" fill="white"/>
<path d="M236.129 186.742H249.903V256H236.129V186.742Z" fill="white"/>
<path d="M206.271 186.742H220.045V256H206.271V186.742Z" fill="white"/>
<path d="M144.753 221.274C144.947 218.041 145.755 215.357 147.178 213.223C148.601 211.089 150.412 209.376 152.61 208.082C154.809 206.789 157.266 205.883 159.982 205.366C162.763 204.784 165.544 204.493 168.324 204.493C170.846 204.493 173.401 204.687 175.987 205.075C178.574 205.398 180.934 206.077 183.068 207.112C185.202 208.147 186.948 209.602 188.306 211.477C189.664 213.288 190.343 215.713 190.343 218.752V244.845C190.343 247.109 190.473 249.275 190.731 251.344C190.99 253.413 191.443 254.965 192.089 256H178.121C177.863 255.224 177.636 254.448 177.442 253.672C177.313 252.831 177.216 251.991 177.151 251.15C174.953 253.413 172.366 254.998 169.391 255.903C166.417 256.809 163.377 257.261 160.273 257.261C157.88 257.261 155.65 256.97 153.58 256.388C151.511 255.806 149.7 254.901 148.148 253.672C146.596 252.443 145.368 250.891 144.462 249.016C143.622 247.141 143.201 244.91 143.201 242.323C143.201 239.478 143.686 237.15 144.656 235.339C145.691 233.464 146.984 231.976 148.536 230.877C150.153 229.778 151.964 228.969 153.968 228.452C156.038 227.87 158.107 227.417 160.176 227.094C162.245 226.771 164.283 226.512 166.287 226.318C168.292 226.124 170.07 225.833 171.622 225.445C173.174 225.057 174.403 224.508 175.308 223.796C176.214 223.02 176.634 221.921 176.569 220.498C176.569 219.011 176.311 217.847 175.793 217.006C175.34 216.101 174.694 215.422 173.853 214.969C173.077 214.452 172.139 214.128 171.04 213.999C170.005 213.805 168.874 213.708 167.645 213.708C164.929 213.708 162.795 214.29 161.243 215.454C159.691 216.618 158.786 218.558 158.527 221.274H144.753ZM176.569 231.459C175.987 231.977 175.243 232.397 174.338 232.72C173.497 232.979 172.56 233.205 171.525 233.399C170.555 233.593 169.521 233.755 168.421 233.884C167.322 234.014 166.223 234.175 165.123 234.369C164.089 234.563 163.054 234.822 162.019 235.145C161.049 235.469 160.176 235.921 159.4 236.503C158.689 237.021 158.107 237.699 157.654 238.54C157.202 239.381 156.975 240.448 156.975 241.741C156.975 242.97 157.202 244.005 157.654 244.845C158.107 245.686 158.721 246.365 159.497 246.882C160.273 247.335 161.178 247.658 162.213 247.852C163.248 248.046 164.315 248.143 165.414 248.143C168.13 248.143 170.232 247.691 171.719 246.785C173.206 245.88 174.306 244.813 175.017 243.584C175.729 242.291 176.149 240.997 176.278 239.704C176.472 238.411 176.569 237.376 176.569 236.6V231.459Z" fill="white"/>
<path d="M82.9863 186.742H96.7603V212.835H97.0513C98.7973 209.925 101.028 207.824 103.744 206.53C106.46 205.172 109.112 204.493 111.698 204.493C115.384 204.493 118.391 205.011 120.719 206.045C123.112 207.015 124.987 208.406 126.345 210.216C127.703 211.962 128.641 214.129 129.158 216.715C129.74 219.237 130.031 222.05 130.031 225.154V256H116.257V227.676C116.257 223.538 115.611 220.466 114.317 218.461C113.024 216.392 110.728 215.357 107.43 215.357C103.68 215.357 100.964 216.489 99.2823 218.752C97.601 220.951 96.7603 224.605 96.7603 229.713V256H82.9863V186.742Z" fill="white"/>
<path d="M53.8645 210.022C53.6059 208.276 53.0239 206.691 52.1185 205.269C51.2132 203.781 50.0816 202.488 48.7235 201.389C47.3655 200.289 45.8135 199.449 44.0676 198.867C42.3862 198.22 40.6079 197.897 38.7325 197.897C35.3052 197.897 32.3952 198.576 30.0025 199.934C27.6099 201.227 25.6699 203.005 24.1825 205.269C22.6952 207.467 21.5959 209.989 20.8845 212.835C20.2379 215.68 19.9145 218.622 19.9145 221.662C19.9145 224.572 20.2379 227.417 20.8845 230.198C21.5959 232.914 22.6952 235.371 24.1825 237.57C25.6699 239.768 27.6099 241.547 30.0025 242.905C32.3952 244.198 35.3052 244.845 38.7325 244.845C43.3885 244.845 47.0099 243.422 49.5965 240.577C52.2479 237.731 53.8645 233.981 54.4465 229.325H69.1906C68.8026 233.657 67.8002 237.57 66.1836 241.062C64.5669 244.554 62.4329 247.528 59.7815 249.986C57.1302 252.443 54.0262 254.318 50.4696 255.612C46.9129 256.905 43.0005 257.552 38.7325 257.552C33.4299 257.552 28.6445 256.646 24.3765 254.836C20.1732 252.96 16.6165 250.406 13.7065 247.173C10.7965 243.939 8.56555 240.156 7.01355 235.824C5.46155 231.426 4.68555 226.706 4.68555 221.662C4.68555 216.488 5.46155 211.703 7.01355 207.306C8.56555 202.844 10.7965 198.964 13.7065 195.666C16.6165 192.368 20.1732 189.781 24.3765 187.906C28.6445 186.03 33.4299 185.093 38.7325 185.093C42.5479 185.093 46.1369 185.642 49.4995 186.742C52.9269 187.841 55.9662 189.458 58.6175 191.592C61.3335 193.661 63.5645 196.248 65.3106 199.352C67.0566 202.456 68.1559 206.012 68.6085 210.022H53.8645Z" fill="white"/>
<path d="M611.259 156.113C608.479 158.829 605.504 160.866 602.335 162.224C599.231 163.582 595.707 164.261 591.762 164.261C588.658 164.261 585.716 163.808 582.935 162.903C580.219 161.997 577.859 160.672 575.854 158.926C573.85 157.115 572.265 154.949 571.101 152.427C569.937 149.84 569.355 146.898 569.355 143.6C569.355 141.142 569.776 138.911 570.616 136.907C571.457 134.837 572.589 132.994 574.011 131.378C575.499 129.696 577.18 128.209 579.055 126.916C580.931 125.622 582.871 124.491 584.875 123.521C583 121.257 581.416 118.994 580.122 116.731C578.894 114.467 578.279 111.816 578.279 108.777C578.279 106.384 578.764 104.218 579.734 102.278C580.769 100.338 582.127 98.6888 583.808 97.3308C585.49 95.9082 587.397 94.8412 589.531 94.1298C591.73 93.3538 593.993 92.9658 596.321 92.9658C598.973 92.9658 601.43 93.3215 603.693 94.0328C606.021 94.7442 608.026 95.8112 609.707 97.2338C611.453 98.5918 612.811 100.305 613.781 102.375C614.816 104.444 615.333 106.837 615.333 109.553C615.333 113.627 614.137 117.054 611.744 119.835C609.416 122.615 606.506 124.943 603.014 126.819L611.938 137.78C612.65 136.486 613.199 135.161 613.587 133.803C613.975 132.38 614.266 130.957 614.46 129.535H626.391C626.068 132.639 625.357 135.646 624.257 138.556C623.158 141.466 621.638 144.149 619.698 146.607L633.763 163H616.885L611.259 156.113ZM592.15 132.445C590.922 132.962 589.725 133.576 588.561 134.288C587.397 134.999 586.363 135.84 585.457 136.81C584.552 137.78 583.808 138.847 583.226 140.011C582.709 141.175 582.45 142.468 582.45 143.891C582.45 145.119 582.709 146.316 583.226 147.48C583.808 148.579 584.552 149.549 585.457 150.39C586.363 151.166 587.397 151.812 588.561 152.33C589.79 152.782 591.051 153.009 592.344 153.009C594.802 153.009 596.936 152.459 598.746 151.36C600.622 150.196 602.368 148.708 603.984 146.898L592.15 132.445ZM603.305 108.777C603.305 106.966 602.659 105.414 601.365 104.121C600.137 102.827 598.682 102.181 597 102.181C595.319 102.181 593.864 102.763 592.635 103.927C591.407 105.026 590.792 106.481 590.792 108.292C590.792 110.49 591.374 112.366 592.538 113.918C593.702 115.47 594.931 117.054 596.224 118.671C598.164 117.442 599.813 116.116 601.171 114.694C602.594 113.271 603.305 111.299 603.305 108.777Z" fill="white"/>
<path d="M477.295 112.851H490.39V119.835H490.681C492.427 116.925 494.69 114.824 497.471 113.53C500.252 112.172 503.097 111.493 506.007 111.493C509.693 111.493 512.7 112.011 515.028 113.045C517.421 114.015 519.296 115.406 520.654 117.216C522.012 118.962 522.95 121.128 523.467 123.715C524.049 126.237 524.34 129.05 524.34 132.154V163H510.566V134.676C510.566 130.537 509.919 127.466 508.626 125.461C507.333 123.392 505.037 122.357 501.739 122.357C497.988 122.357 495.272 123.489 493.591 125.752C491.91 127.951 491.069 131.604 491.069 136.713V163H477.295V112.851Z" fill="white"/>
<path d="M425.368 137.974C425.368 139.979 425.562 141.951 425.95 143.891C426.338 145.767 426.984 147.48 427.89 149.032C428.86 150.52 430.121 151.716 431.673 152.621C433.225 153.527 435.165 153.979 437.493 153.979C439.821 153.979 441.761 153.527 443.313 152.621C444.929 151.716 446.19 150.52 447.096 149.032C448.066 147.48 448.745 145.767 449.133 143.891C449.521 141.951 449.715 139.979 449.715 137.974C449.715 135.97 449.521 133.997 449.133 132.057C448.745 130.117 448.066 128.404 447.096 126.916C446.19 125.429 444.929 124.232 443.313 123.327C441.761 122.357 439.821 121.872 437.493 121.872C435.165 121.872 433.225 122.357 431.673 123.327C430.121 124.232 428.86 125.429 427.89 126.916C426.984 128.404 426.338 130.117 425.95 132.057C425.562 133.997 425.368 135.97 425.368 137.974ZM411.594 137.974C411.594 133.965 412.208 130.344 413.437 127.11C414.665 123.812 416.411 121.031 418.675 118.768C420.938 116.44 423.654 114.662 426.823 113.433C429.991 112.14 433.548 111.493 437.493 111.493C441.437 111.493 444.994 112.14 448.163 113.433C451.396 114.662 454.144 116.44 456.408 118.768C458.671 121.031 460.417 123.812 461.646 127.11C462.874 130.344 463.489 133.965 463.489 137.974C463.489 141.984 462.874 145.605 461.646 148.838C460.417 152.071 458.671 154.852 456.408 157.18C454.144 159.443 451.396 161.189 448.163 162.418C444.994 163.647 441.437 164.261 437.493 164.261C433.548 164.261 429.991 163.647 426.823 162.418C423.654 161.189 420.938 159.443 418.675 157.18C416.411 154.852 414.665 152.071 413.437 148.838C412.208 145.605 411.594 141.984 411.594 137.974Z" fill="white"/>
<path d="M397.45 105.091H383.676V93.7422H397.45V105.091ZM383.676 112.851H397.45V163H383.676V112.851Z" fill="white"/>
<path d="M361.796 112.851H371.884V122.066H361.796V146.898C361.796 149.226 362.184 150.778 362.96 151.554C363.736 152.33 365.288 152.718 367.616 152.718C368.392 152.718 369.135 152.686 369.847 152.621C370.558 152.557 371.237 152.46 371.884 152.33V163C370.72 163.194 369.426 163.324 368.004 163.388C366.581 163.453 365.191 163.485 363.833 163.485C361.699 163.485 359.662 163.324 357.722 163C355.846 162.742 354.165 162.192 352.678 161.351C351.255 160.511 350.123 159.314 349.283 157.762C348.442 156.21 348.022 154.173 348.022 151.651V122.066H339.68V112.851H348.022V97.8164H361.796V112.851Z" fill="white"/>
<path d="M283.204 128.274C283.398 125.041 284.207 122.357 285.629 120.223C287.052 118.089 288.863 116.376 291.061 115.082C293.26 113.789 295.717 112.883 298.433 112.366C301.214 111.784 303.995 111.493 306.775 111.493C309.297 111.493 311.852 111.687 314.438 112.075C317.025 112.398 319.385 113.077 321.519 114.112C323.653 115.147 325.399 116.602 326.757 118.477C328.115 120.288 328.794 122.713 328.794 125.752V151.845C328.794 154.109 328.924 156.275 329.182 158.344C329.441 160.413 329.894 161.965 330.54 163H316.572C316.314 162.224 316.087 161.448 315.893 160.672C315.764 159.831 315.667 158.991 315.602 158.15C313.404 160.413 310.817 161.998 307.842 162.903C304.868 163.809 301.828 164.261 298.724 164.261C296.332 164.261 294.101 163.97 292.031 163.388C289.962 162.806 288.151 161.901 286.599 160.672C285.047 159.443 283.819 157.892 282.913 156.016C282.073 154.141 281.652 151.91 281.652 149.323C281.652 146.478 282.137 144.15 283.107 142.339C284.142 140.464 285.435 138.976 286.987 137.877C288.604 136.778 290.415 135.969 292.419 135.452C294.489 134.87 296.558 134.417 298.627 134.094C300.697 133.771 302.734 133.512 304.738 133.318C306.743 133.124 308.521 132.833 310.073 132.445C311.625 132.057 312.854 131.508 313.759 130.796C314.665 130.02 315.085 128.921 315.02 127.498C315.02 126.011 314.762 124.847 314.244 124.006C313.792 123.101 313.145 122.422 312.304 121.969C311.528 121.452 310.591 121.128 309.491 120.999C308.457 120.805 307.325 120.708 306.096 120.708C303.38 120.708 301.246 121.29 299.694 122.454C298.142 123.618 297.237 125.558 296.978 128.274H283.204ZM315.02 138.459C314.438 138.977 313.695 139.397 312.789 139.72C311.949 139.979 311.011 140.205 309.976 140.399C309.006 140.593 307.972 140.755 306.872 140.884C305.773 141.014 304.674 141.175 303.574 141.369C302.54 141.563 301.505 141.822 300.47 142.145C299.5 142.469 298.627 142.921 297.851 143.503C297.14 144.021 296.558 144.699 296.105 145.54C295.653 146.381 295.426 147.448 295.426 148.741C295.426 149.97 295.653 151.005 296.105 151.845C296.558 152.686 297.172 153.365 297.948 153.882C298.724 154.335 299.63 154.658 300.664 154.852C301.699 155.046 302.766 155.143 303.865 155.143C306.581 155.143 308.683 154.691 310.17 153.785C311.658 152.88 312.757 151.813 313.468 150.584C314.18 149.291 314.6 147.997 314.729 146.704C314.923 145.411 315.02 144.376 315.02 143.6V138.459Z" fill="white"/>
<path d="M256.284 163.001H240.958L223.789 112.852H238.242L248.815 147.093H249.009L259.582 112.852H273.259L256.284 163.001Z" fill="white"/>
<path d="M176.616 137.974C176.616 139.979 176.81 141.951 177.198 143.891C177.586 145.767 178.232 147.48 179.138 149.032C180.108 150.52 181.369 151.716 182.921 152.621C184.473 153.527 186.413 153.979 188.741 153.979C191.069 153.979 193.009 153.527 194.561 152.621C196.177 151.716 197.438 150.52 198.344 149.032C199.314 147.48 199.993 145.767 200.381 143.891C200.769 141.951 200.963 139.979 200.963 137.974C200.963 135.97 200.769 133.997 200.381 132.057C199.993 130.117 199.314 128.404 198.344 126.916C197.438 125.429 196.177 124.232 194.561 123.327C193.009 122.357 191.069 121.872 188.741 121.872C186.413 121.872 184.473 122.357 182.921 123.327C181.369 124.232 180.108 125.429 179.138 126.916C178.232 128.404 177.586 130.117 177.198 132.057C176.81 133.997 176.616 135.97 176.616 137.974ZM162.842 137.974C162.842 133.965 163.456 130.344 164.685 127.11C165.913 123.812 167.659 121.031 169.923 118.768C172.186 116.44 174.902 114.662 178.071 113.433C181.239 112.14 184.796 111.493 188.741 111.493C192.685 111.493 196.242 112.14 199.411 113.433C202.644 114.662 205.392 116.44 207.656 118.768C209.919 121.031 211.665 123.812 212.894 127.11C214.122 130.344 214.737 133.965 214.737 137.974C214.737 141.984 214.122 145.605 212.894 148.838C211.665 152.071 209.919 154.852 207.656 157.18C205.392 159.443 202.644 161.189 199.411 162.418C196.242 163.647 192.685 164.261 188.741 164.261C184.796 164.261 181.239 163.647 178.071 162.418C174.902 161.189 172.186 159.443 169.923 157.18C167.659 154.852 165.913 152.071 164.685 148.838C163.456 145.605 162.842 141.984 162.842 137.974Z" fill="white"/>
<path d="M102.045 112.851H115.14V119.835H115.431C117.177 116.925 119.44 114.824 122.221 113.53C125.002 112.172 127.847 111.493 130.757 111.493C134.443 111.493 137.45 112.011 139.778 113.045C142.171 114.015 144.046 115.406 145.404 117.216C146.762 118.962 147.7 121.128 148.217 123.715C148.799 126.237 149.09 129.05 149.09 132.154V163H135.316V134.676C135.316 130.537 134.669 127.466 133.376 125.461C132.083 123.392 129.787 122.357 126.489 122.357C122.738 122.357 120.022 123.489 118.341 125.752C116.66 127.951 115.819 131.604 115.819 136.713V163H102.045V112.851Z" fill="white"/>
<path d="M39.6953 112.851H52.7903V119.835H53.0813C54.8273 116.925 57.0906 114.824 59.8713 113.53C62.652 112.172 65.4973 111.493 68.4073 111.493C72.0933 111.493 75.1003 112.011 77.4283 113.045C79.821 114.015 81.6963 115.406 83.0543 117.216C84.4123 118.962 85.35 121.128 85.8673 123.715C86.4493 126.237 86.7403 129.05 86.7403 132.154V163H72.9663V134.676C72.9663 130.537 72.3196 127.466 71.0263 125.461C69.733 123.392 67.4373 122.357 64.1393 122.357C60.3886 122.357 57.6726 123.489 55.9913 125.752C54.31 127.951 53.4693 131.604 53.4693 136.713V163H39.6953V112.851Z" fill="white"/>
<path d="M7.69336 93.7422H22.9224V163H7.69336V93.7422Z" fill="white"/>
<path d="M642.969 55.0625H658.198V70.0005C658.198 72.1992 657.777 74.2038 656.937 76.0145C656.161 77.8898 655.094 79.5065 653.736 80.8645C652.378 82.2225 650.761 83.3218 648.886 84.1625C647.075 85.0678 645.135 85.6822 643.066 86.0055V79.0215C644.036 78.8275 644.941 78.4395 645.782 77.8575C646.687 77.2755 647.463 76.5642 648.11 75.7235C648.756 74.9475 649.241 74.0422 649.565 73.0075C649.888 72.0375 650.017 71.0352 649.953 70.0005H642.969V55.0625Z" fill="white"/>
<path d="M620.798 19.8514H630.886V29.0664H620.798V53.8984C620.798 56.2264 621.186 57.7784 621.962 58.5544C622.738 59.3304 624.29 59.7184 626.618 59.7184C627.394 59.7184 628.137 59.6861 628.849 59.6214C629.56 59.5567 630.239 59.4597 630.886 59.3304V70.0004C629.722 70.1944 628.428 70.3237 627.006 70.3884C625.583 70.4531 624.193 70.4854 622.835 70.4854C620.701 70.4854 618.664 70.3237 616.724 70.0004C614.848 69.7417 613.167 69.1921 611.68 68.3514C610.257 67.5107 609.125 66.3144 608.285 64.7624C607.444 63.2104 607.024 61.1734 607.024 58.6514V29.0664H598.682V19.8514H607.024V4.81641H620.798V19.8514Z" fill="white"/>
<path d="M557.058 53.7042C557.058 55.1915 557.349 56.4848 557.931 57.5842C558.578 58.6188 559.386 59.4918 560.356 60.2032C561.326 60.8498 562.425 61.3348 563.654 61.6582C564.947 61.9815 566.273 62.1432 567.631 62.1432C568.601 62.1432 569.603 62.0462 570.638 61.8522C571.737 61.5935 572.707 61.2378 573.548 60.7852C574.453 60.2678 575.197 59.6212 575.779 58.8452C576.361 58.0045 576.652 56.9698 576.652 55.7412C576.652 53.6718 575.262 52.1198 572.481 51.0852C569.765 50.0505 565.95 49.0158 561.035 47.9812C559.03 47.5285 557.058 47.0112 555.118 46.4292C553.243 45.7825 551.561 44.9742 550.074 44.0042C548.587 42.9695 547.39 41.7085 546.485 40.2212C545.58 38.6692 545.127 36.7938 545.127 34.5952C545.127 31.3618 545.741 28.7105 546.97 26.6412C548.263 24.5718 549.945 22.9552 552.014 21.7912C554.083 20.5625 556.411 19.7218 558.998 19.2692C561.585 18.7518 564.236 18.4932 566.952 18.4932C569.668 18.4932 572.287 18.7518 574.809 19.2692C577.396 19.7865 579.691 20.6595 581.696 21.8882C583.701 23.1168 585.35 24.7658 586.643 26.8352C588.001 28.8398 588.809 31.3942 589.068 34.4982H575.973C575.779 31.8468 574.777 30.0685 572.966 29.1632C571.155 28.1932 569.021 27.7082 566.564 27.7082C565.788 27.7082 564.947 27.7728 564.042 27.9022C563.137 27.9668 562.296 28.1608 561.52 28.4842C560.809 28.8075 560.194 29.2925 559.677 29.9392C559.16 30.5212 558.901 31.3295 558.901 32.3642C558.901 33.5928 559.354 34.5952 560.259 35.3712C561.164 36.1472 562.328 36.7938 563.751 37.3112C565.238 37.7638 566.92 38.1842 568.795 38.5722C570.67 38.9602 572.578 39.3805 574.518 39.8332C576.523 40.2858 578.463 40.8355 580.338 41.4822C582.278 42.1288 583.992 43.0018 585.479 44.1012C586.966 45.1358 588.163 46.4615 589.068 48.0782C589.973 49.6302 590.426 51.5702 590.426 53.8982C590.426 57.1962 589.747 59.9768 588.389 62.2402C587.096 64.4388 585.382 66.2172 583.248 67.5752C581.114 68.9332 578.657 69.8708 575.876 70.3882C573.16 70.9702 570.379 71.2612 567.534 71.2612C564.624 71.2612 561.779 70.9702 558.998 70.3882C556.217 69.8062 553.728 68.8362 551.529 67.4782C549.395 66.1202 547.617 64.3418 546.194 62.1432C544.836 59.8798 544.092 57.0668 543.963 53.7042H557.058Z" fill="white"/>
<path d="M531.084 70.0006H517.989V63.0166H517.698C515.952 65.9266 513.689 68.0282 510.908 69.3216C508.127 70.6149 505.282 71.2616 502.372 71.2616C498.686 71.2616 495.647 70.7766 493.254 69.8066C490.926 68.8366 489.083 67.4786 487.725 65.7326C486.367 63.9219 485.397 61.7556 484.815 59.2336C484.298 56.6469 484.039 53.8016 484.039 50.6976V19.8516H497.813V48.1756C497.813 52.3142 498.46 55.4182 499.753 57.4876C501.046 59.4922 503.342 60.4946 506.64 60.4946C510.391 60.4946 513.107 59.3952 514.788 57.1966C516.469 54.9332 517.31 51.2472 517.31 46.1386V19.8516H531.084V70.0006Z" fill="white"/>
<path d="M441.488 19.8512H454.583V29.1632H454.777C455.424 27.6112 456.297 26.1885 457.396 24.8952C458.496 23.5372 459.757 22.4055 461.179 21.5002C462.602 20.5302 464.122 19.7865 465.738 19.2692C467.355 18.7518 469.036 18.4932 470.782 18.4932C471.688 18.4932 472.69 18.6548 473.789 18.9782V31.7822C473.143 31.6528 472.367 31.5558 471.461 31.4912C470.556 31.3618 469.683 31.2972 468.842 31.2972C466.32 31.2972 464.186 31.7175 462.44 32.5582C460.694 33.3988 459.272 34.5628 458.172 36.0502C457.138 37.4728 456.394 39.1542 455.941 41.0942C455.489 43.0342 455.262 45.1358 455.262 47.3992V70.0002H441.488V19.8512Z" fill="white"/>
<path d="M403.024 13.5462H382.266V0.742188H439.011V13.5462H418.253V70.0002H403.024V13.5462Z" fill="white"/>
<path d="M320.251 29.0662H312.006V19.8512H320.251V15.9712C320.251 11.5092 321.641 7.85552 324.422 5.01019C327.203 2.16485 331.406 0.742188 337.032 0.742188C338.261 0.742188 339.489 0.806855 340.718 0.936191C341.947 1.00086 343.143 1.06552 344.307 1.13019V11.4122C342.69 11.2182 341.009 11.1212 339.263 11.1212C337.388 11.1212 336.03 11.5739 335.189 12.4792C334.413 13.3199 334.025 14.7749 334.025 16.8442V19.8512H343.531V29.0662H334.025V70.0002H320.251V29.0662Z" fill="white"/>
<path d="M265.317 44.9742C265.317 46.9788 265.511 48.9512 265.899 50.8912C266.287 52.7665 266.934 54.4802 267.839 56.0322C268.809 57.5195 270.07 58.7158 271.622 59.6212C273.174 60.5265 275.114 60.9792 277.442 60.9792C279.77 60.9792 281.71 60.5265 283.262 59.6212C284.879 58.7158 286.14 57.5195 287.045 56.0322C288.015 54.4802 288.694 52.7665 289.082 50.8912C289.47 48.9512 289.664 46.9788 289.664 44.9742C289.664 42.9695 289.47 40.9972 289.082 39.0572C288.694 37.1172 288.015 35.4035 287.045 33.9162C286.14 32.4288 284.879 31.2325 283.262 30.3272C281.71 29.3572 279.77 28.8722 277.442 28.8722C275.114 28.8722 273.174 29.3572 271.622 30.3272C270.07 31.2325 268.809 32.4288 267.839 33.9162C266.934 35.4035 266.287 37.1172 265.899 39.0572C265.511 40.9972 265.317 42.9695 265.317 44.9742ZM251.543 44.9742C251.543 40.9648 252.157 37.3435 253.386 34.1102C254.615 30.8122 256.361 28.0315 258.624 25.7682C260.887 23.4402 263.603 21.6618 266.772 20.4332C269.941 19.1398 273.497 18.4932 277.442 18.4932C281.387 18.4932 284.943 19.1398 288.112 20.4332C291.345 21.6618 294.094 23.4402 296.357 25.7682C298.62 28.0315 300.366 30.8122 301.595 34.1102C302.824 37.3435 303.438 40.9648 303.438 44.9742C303.438 48.9835 302.824 52.6048 301.595 55.8382C300.366 59.0715 298.62 61.8522 296.357 64.1802C294.094 66.4435 291.345 68.1895 288.112 69.4182C284.943 70.6468 281.387 71.2612 277.442 71.2612C273.497 71.2612 269.941 70.6468 266.772 69.4182C263.603 68.1895 260.887 66.4435 258.624 64.1802C256.361 61.8522 254.615 59.0715 253.386 55.8382C252.157 52.6048 251.543 48.9835 251.543 44.9742Z" fill="white"/>
<path d="M174.968 53.7042C174.968 55.1915 175.259 56.4848 175.841 57.5842C176.488 58.6188 177.296 59.4918 178.266 60.2032C179.236 60.8498 180.335 61.3348 181.564 61.6582C182.857 61.9815 184.183 62.1432 185.541 62.1432C186.511 62.1432 187.513 62.0462 188.548 61.8522C189.647 61.5935 190.617 61.2378 191.458 60.7852C192.363 60.2678 193.107 59.6212 193.689 58.8452C194.271 58.0045 194.562 56.9698 194.562 55.7412C194.562 53.6718 193.172 52.1198 190.391 51.0852C187.675 50.0505 183.86 49.0158 178.945 47.9812C176.94 47.5285 174.968 47.0112 173.028 46.4292C171.153 45.7825 169.471 44.9742 167.984 44.0042C166.497 42.9695 165.3 41.7085 164.395 40.2212C163.49 38.6692 163.037 36.7938 163.037 34.5952C163.037 31.3618 163.651 28.7105 164.88 26.6412C166.173 24.5718 167.855 22.9552 169.924 21.7912C171.993 20.5625 174.321 19.7218 176.908 19.2692C179.495 18.7518 182.146 18.4932 184.862 18.4932C187.578 18.4932 190.197 18.7518 192.719 19.2692C195.306 19.7865 197.601 20.6595 199.606 21.8882C201.611 23.1168 203.26 24.7658 204.553 26.8352C205.911 28.8398 206.719 31.3942 206.978 34.4982H193.883C193.689 31.8468 192.687 30.0685 190.876 29.1632C189.065 28.1932 186.931 27.7082 184.474 27.7082C183.698 27.7082 182.857 27.7728 181.952 27.9022C181.047 27.9668 180.206 28.1608 179.43 28.4842C178.719 28.8075 178.104 29.2925 177.587 29.9392C177.07 30.5212 176.811 31.3295 176.811 32.3642C176.811 33.5928 177.264 34.5952 178.169 35.3712C179.074 36.1472 180.238 36.7938 181.661 37.3112C183.148 37.7638 184.83 38.1842 186.705 38.5722C188.58 38.9602 190.488 39.3805 192.428 39.8332C194.433 40.2858 196.373 40.8355 198.248 41.4822C200.188 42.1288 201.902 43.0018 203.389 44.1012C204.876 45.1358 206.073 46.4615 206.978 48.0782C207.883 49.6302 208.336 51.5702 208.336 53.8982C208.336 57.1962 207.657 59.9768 206.299 62.2402C205.006 64.4388 203.292 66.2172 201.158 67.5752C199.024 68.9332 196.567 69.8708 193.786 70.3882C191.07 70.9702 188.289 71.2612 185.444 71.2612C182.534 71.2612 179.689 70.9702 176.908 70.3882C174.127 69.8062 171.638 68.8362 169.439 67.4782C167.305 66.1202 165.527 64.3418 164.104 62.1432C162.746 59.8798 162.002 57.0668 161.873 53.7042H174.968Z" fill="white"/>
<path d="M148.602 12.0912H134.828V0.742188H148.602V12.0912ZM134.828 19.8512H148.602V70.0002H134.828V19.8512Z" fill="white"/>
<path d="M90.2959 43.6166L73.8059 19.8516H89.5199L98.3469 32.9466L107.077 19.8516H122.306L105.816 43.3256L124.343 70.0006H108.629L98.1529 54.1896L87.6769 70.0006H72.2539L90.2959 43.6166Z" fill="white"/>
<path d="M25.153 43.2282H43.098L34.368 17.8142H34.174L25.153 43.2282ZM26.608 0.742188H42.225L68.124 70.0002H52.313L47.075 54.5772H21.176L15.744 70.0002H0.417969L26.608 0.742188Z" fill="white"/>
</svg>
